<svg xmlns="http://www.w3.org/2000/svg" xmlns:xlink="http://www.w3.org/1999/xlink" width="150" height="100" viewBox="0 0 150 100">
    <defs>
        <path id="a" d="M0 0h150v100H0z"/>
    </defs>
    <g fill="none" fill-rule="evenodd">
        <mask id="b" fill="#fff">
            <use xlink:href="#a"/>
        </mask>
        <use fill="#E8E8E8" xlink:href="#a"/>
        <g stroke-width="2.3" mask="url(#b)">
            <path stroke="#E45427" stroke-linecap="round" stroke-linejoin="round" d="M88.209 51.103l.959-.237a4.726 4.726 0 0 0 3.463-5.72l-2.823-11.473a4.726 4.726 0 0 0-5.72-3.463l-3.138.846"/>
            <path stroke="#273447" stroke-linecap="round" stroke-linejoin="round" d="M66.929 72.413v-3.8c0-1.098-.158-2.19-.47-3.243a6.052 6.052 0 0 0-3.29-3.899 3.802 3.802 0 0 1-2.32-3.498v-1.181"/>
            <path stroke="#E45427" stroke-linecap="round" stroke-linejoin="round" d="M61.305 36.403l-.993.341c-1.218.3-3.747.735-4.397 1.808a4.728 4.728 0 0 0-.546 3.579l2.823 11.48a4.728 4.728 0 0 0 5.72 3.464l13.16-3.242"/>
            <path stroke="#273447" stroke-linecap="round" stroke-linejoin="round" d="M82.129 72.413v-3.8c0-1.098.158-2.19.47-3.243a6.052 6.052 0 0 1 3.29-3.899 3.802 3.802 0 0 0 2.32-3.502V46.573a3.04 3.04 0 1 0-6.08 0v4.56a6.08 6.08 0 0 0-6.08 6.08"/>
            <path stroke="#273447" d="M79.811 35.975a.095.095 0 0 1 .016-.006l-.034.01a.107.107 0 0 1 .018-.004zm-.85-3.445h-.003.003zm-.003 0zm2.122-.63l.911 3.622a2.206 2.206 0 0 1-1.56 2.666l-.034.01a2.193 2.193 0 0 1-2.693-1.54l-.014-.056-.892-3.647a2.199 2.199 0 0 1 1.614-2.658l.005-.002h.005A2.206 2.206 0 0 1 81.08 31.9zM74.88 38.387v.002a.176.176 0 0 1 .042-.004.094.094 0 0 1 .04-.026l-.082.028zm-1.302-5.811a.094.094 0 0 1-.026.012l.062-.02a.165.165 0 0 1-.036.008zm2.06-.679l1.495 6.02a2.206 2.206 0 0 1-1.414 2.614l-.103.036a2.122 2.122 0 0 1-2.76-1.502l-1.475-6.044a2.206 2.206 0 0 1 1.475-2.625l.063-.02a2.136 2.136 0 0 1 2.719 1.521zM69.946 40.499v.001a.176.176 0 0 1 .042-.004.094.094 0 0 1 .04-.026l-.082.029zm-1.302-5.812a.094.094 0 0 1-.025.012l.062-.02a.165.165 0 0 1-.037.008zm2.06-.678l1.495 6.019a2.206 2.206 0 0 1-1.414 2.614l-.103.036a2.122 2.122 0 0 1-2.76-1.501l-1.475-6.045a2.206 2.206 0 0 1 1.476-2.625l.062-.02a2.136 2.136 0 0 1 2.682 1.39c.02.065.02.065.037.132zM64.387 40.098v.002a.184.184 0 0 1 .04-.003.094.094 0 0 1 .04-.027l-.08.028zm-.655-3.3a.094.094 0 0 1-.028.015l.07-.022a.17.17 0 0 1-.042.008zm2.06-.67l.85 3.512a2.206 2.206 0 0 1-1.417 2.602l-.108.037a2.115 2.115 0 0 1-2.755-1.512l-.834-3.538a2.206 2.206 0 0 1 1.48-2.608l.07-.022a2.13 2.13 0 0 1 2.674 1.385c.022.072.022.072.04.144z"/>
        </g>
        <g stroke="#273447" mask="url(#b)" opacity=".05">
            <path stroke-linecap="round" stroke-linejoin="round" stroke-width="3.45" d="M24.192 49.988l1.362-.337a6.716 6.716 0 0 0 4.922-8.127L26.464 25.22a6.716 6.716 0 0 0-8.127-4.922l-4.46 1.202M-14.04 29.1l-1.411.484c-1.731.425-5.325 1.045-6.248 2.57a6.719 6.719 0 0 0-.777 5.084l4.012 16.315a6.719 6.719 0 0 0 8.127 4.922l18.703-4.608"/>
            <path stroke-linecap="round" stroke-linejoin="round" stroke-width="3.45" d="M15.552 80.271v-5.4c-.001-1.56.224-3.112.668-4.608a8.6 8.6 0 0 1 4.674-5.54 5.403 5.403 0 0 0 3.298-4.978V43.551a4.32 4.32 0 0 0-8.64 0v6.48a8.64 8.64 0 0 0-8.64 8.64"/>
            <path stroke-width="3" d="M13.93 22.732l1.295 5.147a3 3 0 0 1-2.12 3.627l-.05.013a2.983 2.983 0 0 1-3.661-2.094l-.02-.075-1.267-5.183a2.99 2.99 0 0 1 2.195-3.615l.006-.002.007-.001a3 3 0 0 1 3.615 2.183zM6.197 22.729l2.124 8.553a3 3 0 0 1-1.923 3.556l-.146.05a2.882 2.882 0 0 1-3.749-2.037L.41 24.26a3 3 0 0 1 2.007-3.57l.088-.028a2.901 2.901 0 0 1 3.643 1.887c.027.089.027.089.05.179zM-.814 25.729l2.124 8.553a3 3 0 0 1-1.923 3.556l-.146.05a2.882 2.882 0 0 1-3.749-2.037l-2.094-8.59a3 3 0 0 1 2.007-3.57l.088-.028A2.901 2.901 0 0 1-.864 25.55c.027.089.027.089.05.179z"/>
        </g>
    </g>
</svg>
