<svg xmlns="http://www.w3.org/2000/svg" xmlns:xlink="http://www.w3.org/1999/xlink" width="150" height="100" viewBox="0 0 150 100">
    <defs>
        <path id="a" d="M0 0h150v100H0z"/>
    </defs>
    <g fill="none" fill-rule="evenodd">
        <mask id="b" fill="#fff">
            <use xlink:href="#a"/>
        </mask>
        <use fill="#E8E8E8" xlink:href="#a"/>
        <g fill-rule="nonzero" stroke-width=".5" mask="url(#b)">
            <path fill="#273447" stroke="#273447" d="M74.688 73.384c-.238 0-.627-.194-.846-.413L50.27 46.254c-.282-.564-.35-.84-.164-1.211l6.583-13.167c.185-.37.578-.632.882-.632h34.563c.442 0 .847.231 1.05.636l6.251 13.163c.238.475.172.934-.2 1.1L75.523 73.146a.825.825 0 0 1-.465.213c-.117.02-.213.024-.37.024zm-22.414-27.94l22.414 25.338 22.417-25.34-5.623-11.888H58.22l-5.945 11.89z"/>
            <path fill="#273447" stroke="#273447" d="M97.802 46.721H50.978c-.627 0-1.063-.442-1.063-1.073 0-.63.436-1.073 1.063-1.073h46.824c.626 0 1.063.442 1.063 1.073s-.437 1.073-1.063 1.073z"/>
            <path fill="#E45427" stroke="#E45427" d="M74.687 35.04L66.38 46.141l-.074.177c-.29.29-.477.402-.835.402-.357 0-.545-.113-.866-.44l-8.23-12.344c-.383-.576-.246-1.261.196-1.468.418-.418 1.05-.292 1.537.203l7.376 11.063 8.338-11.063c.428-.642 1.304-.642 1.724-.012l8.347 11.075 7.406-11.101c.457-.457 1.088-.583 1.506-.165.456.457.583 1.088.196 1.468l-8.199 12.297c-.072.298-.488.487-.897.487-.357 0-.546-.113-.835-.402l-.024-.028-8.359-11.252z"/>
            <path fill="#E45427" stroke="#E45427" d="M74.688 69.084L83.01 45.24c.2-.603.839-.887 1.303-.652.603.201.887.84.651 1.306l-9.23 26.858c-.2.401-.605.632-1.046.632a1.16 1.16 0 0 1-1.06-.662l-9.217-26.83c-.208-.625.027-1.096.652-1.304.625-.208 1.095.027 1.303.649l8.322 23.847z"/>
        </g>
        <g fill="#273447" fill-rule="nonzero" stroke="#273447" stroke-width=".5" mask="url(#b)" opacity=".05">
            <path d="M-5.968 82.452c-.32 0-.874-.277-1.175-.579l-35.34-40.048c-.405-.81-.502-1.196-.247-1.705l9.875-19.75c.257-.514.805-.88 1.212-.88h51.845c.616 0 1.18.323 1.46.884l9.38 19.746c.328.658.24 1.27-.284 1.511l-35.562 40.5c-.154.155-.368.243-.629.286a2.99 2.99 0 0 1-.535.035zm-33.77-41.766l33.77 38.176 33.773-38.179-8.502-17.977h-50.051l-8.99 17.98z"/>
            <path d="M28.703 42.457h-70.237c-.87 0-1.47-.607-1.47-1.485 0-.878.6-1.484 1.47-1.484h70.237c.87 0 1.469.606 1.469 1.484s-.6 1.485-1.47 1.485z"/>
            <path d="M-5.968 24.85l-12.66 17.04c-.414.413-.67.567-1.165.567s-.751-.154-1.196-.605l-12.344-18.516c-.535-.803-.347-1.746.278-2.044.57-.569 1.44-.395 2.113.285l11.161 16.742 12.618-16.742c.592-.89 1.798-.89 2.382-.012L7.845 38.32l11.192-16.78c.642-.642 1.513-.816 2.082-.247.642.642.816 1.513.278 2.044L9.087 41.802c-.08.385-.658.655-1.23.655-.494 0-.75-.154-1.164-.567l-.024-.028-12.637-17.011z"/>
            <path d="M-5.968 76.505L6.632 40.4c.279-.834 1.155-1.224 1.798-.9.834.279 1.224 1.155.898 1.8L-4.51 81.574c-.278.557-.842.879-1.458.879s-1.18-.322-1.47-.91l-13.827-40.244c-.29-.871.027-1.507.899-1.797.872-.29 1.507.027 1.796.895l12.602 36.11z"/>
        </g>
    </g>
</svg>
